<?xml version="1.0" encoding="utf-8"?>
<svg id="master-artboard" viewBox="0 0 905.1572875976562 117.79915618896484" version="1.1" xmlns="http://www.w3.org/2000/svg" x="0px" y="0px" style="enable-background:new 0 0 1400 980;" width="905.1572875976562px" height="117.79915618896484px" xmlns:xlink="http://www.w3.org/1999/xlink"><rect id="ee-background" x="0" y="0" width="905.1572875976562" height="117.79915618896484" style="fill: white; fill-opacity: 0; pointer-events: none;"/><g transform="matrix(1.2760417461395264, 0, 0, 1.2760417461395264, -200.8803367614746, -428.5490734962933)"><metadata id="metadata364442">
    
  </metadata><linearGradient spreadMethod="pad" y2="30%" x2="-10%" y1="120%" x1="30%" id="3d_gradient2-logo-425cc45c-3a23-4776-84df-d5f24217046b">
    <stop id="stop364417" stop-opacity="1" stop-color="#ffffff" offset="0%"/>
    <stop id="stop364419" stop-opacity="1" stop-color="#000000" offset="100%"/>
  </linearGradient><linearGradient gradientTransform="rotate(-30)" spreadMethod="pad" y2="30%" x2="-10%" y1="120%" x1="30%" id="3d_gradient3-logo-425cc45c-3a23-4776-84df-d5f24217046b">
    <stop id="stop364422" stop-opacity="1" stop-color="#ffffff" offset="0%"/>
    <stop id="stop364424" stop-opacity="1" stop-color="#cccccc" offset="50%"/>
    <stop id="stop364426" stop-opacity="1" stop-color="#000000" offset="100%"/>
  </linearGradient><g id="logo-group">
    <image id="container" x="272" y="144" width="480" height="480" style="display: none;" transform="translate(0 0)" xlink:href=""/>
    <g id="logo-center" transform="translate(5.684341886080802e-14 0)">
      <image id="icon_container" style="display: none;" x="0" y="0" xlink:href=""/>
      <g id="slogan" style="font-style:oblique;font-weight:700;font-size:32px;line-height:1;font-family:Averta;font-variant-ligatures:none;text-align:center;text-anchor:middle" transform="translate(0 0)">
        <path id="path364444" style="font-style:oblique;font-weight:700;font-size:32px;line-height:1;font-family:Averta;font-variant-ligatures:none;text-align:center;text-anchor:middle" d="m 217.5355,0.288 c 7.648,0 12.064,-6.24 12.064,-13.728 0,-6.048 -3.744,-9.568 -9.28,-9.568 -7.328,0 -12.032,6.432 -12.032,13.664 0,6.112 3.68,9.632 9.248,9.632 z m 0.384,-4.8 c -2.464,0 -4.288,-1.632 -4.288,-5.152 0,-4.416 2.624,-8.576 6.208,-8.576 2.56,0 4.416,1.568 4.416,5.088 0,4.768 -2.592,8.64 -6.336,8.64 z" stroke-width="0" stroke-linejoin="miter" stroke-miterlimit="2" fill="#79b3ce" stroke="#79b3ce" transform="translate(-1.7053025658242404e-13 348.67400000000004) translate(256.20349999999996 56.296) scale(0.75) translate(-208.2875 23.008)"/>
        <path id="path364446" style="font-style:oblique;font-weight:700;font-size:32px;line-height:1;font-family:Averta;font-variant-ligatures:none;text-align:center;text-anchor:middle" d="m 236.3285,0.288 c 3.808,0 6.208,-2.016 6.208,-5.088 0,-2.464 -1.664,-3.584 -4.096,-4.8 -1.44,-0.704 -2.208,-1.216 -2.208,-1.728 0,-0.608 0.608,-0.96 1.248,-0.96 0.736,0.032 1.824,0.416 2.688,1.6 l 2.912,-2.752 c -1.408,-1.696 -3.52,-2.496 -5.632,-2.496 -3.232,0 -5.792,2.08 -5.792,5.216 0,2.304 1.44,3.584 3.808,4.768 1.792,0.928 2.432,1.184 2.432,1.76 0,0.544 -0.608,0.864 -1.44,0.864 -1.216,0 -2.624,-0.736 -3.552,-1.856 l -2.688,2.784 c 1.376,1.728 3.872,2.688 6.112,2.688 z" stroke-width="0" stroke-linejoin="miter" stroke-miterlimit="2" fill="#79b3ce" stroke="#79b3ce" transform="translate(-1.7053025658242404e-13 348.67400000000004) translate(274.1502499999999 61.6) scale(0.75) translate(-230.2165 15.936)"/>
        <path id="path364448" style="font-style:oblique;font-weight:700;font-size:32px;line-height:1;font-family:Averta;font-variant-ligatures:none;text-align:center;text-anchor:middle" d="M 252.1895,-15.648 250.2695,0 h 4.8 l 0.736,-6.112 c 0.448,-3.648 2.528,-5.536 3.584,-5.536 1.088,0 1.152,0.992 0.864,3.168 l -1.12,8.48 h 4.768 l 0.768,-5.76 c 0.512,-3.968 2.56,-5.888 3.648,-5.888 0.992,0 1.152,0.992 0.864,3.168 l -1.12,8.48 h 4.768 l 1.248,-9.376 c 0.576,-4.512 -0.544,-6.56 -3.648,-6.56 -2.176,0 -3.904,0.8 -5.248,2.368 h -0.16 c -0.448,-1.632 -1.6,-2.368 -3.392,-2.368 -1.824,0 -3.456,0.8 -4.768,2.272 l -0.128,-0.032 0.256,-1.952 z" stroke-width="0" stroke-linejoin="miter" stroke-miterlimit="2" fill="#79b3ce" stroke="#79b3ce" transform="translate(-1.7053025658242404e-13 348.67400000000004) translate(290.68999999999994 61.6) scale(0.75) translate(-250.2695 15.936)"/>
        <path id="path364450" style="font-style:oblique;font-weight:700;font-size:32px;line-height:1;font-family:Averta;font-variant-ligatures:none;text-align:center;text-anchor:middle" d="m 290.2535,-11.616 c 0.032,-2.944 -2.816,-4.32 -5.344,-4.32 -5.28,0 -8.576,4.352 -8.576,9.664 -0.032,4.064 2.592,6.56 6.528,6.56 3.072,0 5.152,-1.152 6.816,-3.424 l -3.584,-2.112 c -0.864,1.152 -1.792,1.568 -2.848,1.568 -0.928,0 -1.952,-0.576 -2.24,-1.984 4.608,-0.48 9.184,-1.984 9.248,-5.952 z m -4.608,0.672 c -0.032,1.536 -2.144,2.144 -4.48,2.4 0.544,-2.176 1.952,-3.392 3.328,-3.392 0.736,0 1.184,0.352 1.152,0.992 z" stroke-width="0" stroke-linejoin="miter" stroke-miterlimit="2" fill="#79b3ce" stroke="#79b3ce" transform="translate(-1.7053025658242404e-13 348.67400000000004) translate(311.7377825 61.6) scale(0.75) translate(-276.33321 15.936)"/>
        <path id="path364452" style="font-style:oblique;font-weight:700;font-size:32px;line-height:1;font-family:Averta;font-variant-ligatures:none;text-align:center;text-anchor:middle" d="M 294.5275,-23.552 291.6475,0 h 4.8 l 2.912,-23.552 z" stroke-width="0" stroke-linejoin="miter" stroke-miterlimit="2" fill="#79b3ce" stroke="#79b3ce" transform="translate(-1.7053025658242404e-13 348.67400000000004) translate(324.72349999999994 55.888) scale(0.75) translate(-291.6475 23.552)"/>
        <path id="path364454" style="font-style:oblique;font-weight:700;font-size:32px;line-height:1;font-family:Averta;font-variant-ligatures:none;text-align:center;text-anchor:middle" d="M 302.962,-23.552 300.05,0 h 4.8 l 0.672,-5.632 c 0.48,-3.968 2.56,-6.016 4.032,-6.016 1.024,0 1.216,0.992 0.928,3.168 L 309.33,0 h 4.8 l 1.248,-9.568 c 0.576,-4.384 -0.64,-6.368 -3.616,-6.368 -2.048,0 -3.808,0.864 -5.216,2.496 l -0.064,-0.032 1.248,-10.08 z" stroke-width="0" stroke-linejoin="miter" stroke-miterlimit="2" fill="#79b3ce" stroke="#79b3ce" transform="translate(-1.7053025658242404e-13 348.67400000000004) translate(332.52537499999994 55.888) scale(0.75) translate(-300.05 23.552)"/>
        <path id="path364456" style="font-style:oblique;font-weight:700;font-size:32px;line-height:1;font-family:Averta;font-variant-ligatures:none;text-align:center;text-anchor:middle" d="m 324.27,0.288 c 5.984,0 8.704,-4.448 8.704,-9.536 0,-4.256 -2.656,-6.688 -6.688,-6.688 -5.504,0 -8.64,4.48 -8.64,9.504 0,4.288 2.656,6.72 6.624,6.72 z M 324.622,-4 c -1.024,0 -2.112,-0.832 -2.112,-2.688 0,-2.4 1.28,-4.96 3.392,-4.96 0.864,0 2.208,0.48 2.208,2.72 0,2.56 -1.376,4.928 -3.488,4.928 z" stroke-width="0" stroke-linejoin="miter" stroke-miterlimit="2" fill="#79b3ce" stroke="#79b3ce" transform="translate(-1.7053025658242404e-13 348.67400000000004) translate(347.22237499999994 61.6) scale(0.75) translate(-317.646 15.936)"/>
        <path id="path364458" style="font-style:oblique;font-weight:700;font-size:32px;line-height:1;font-family:Averta;font-variant-ligatures:none;text-align:center;text-anchor:middle" d="M 336.627,-15.648 334.707,0 h 4.8 l 0.704,-6.016 c 0.576,-3.712 2.496,-5.44 4.8,-4.608 l 0.672,-5.312 c -1.728,0 -3.264,0.832 -4.48,2.432 h -0.064 l 0.288,-2.144 z" stroke-width="0" stroke-linejoin="miter" stroke-miterlimit="2" fill="#79b3ce" stroke="#79b3ce" transform="translate(-1.7053025658242404e-13 348.67400000000004) translate(361.51812499999994 61.6) scale(0.75) translate(-334.707 15.936)"/>
        <path id="path364460" style="font-style:oblique;font-weight:700;font-size:32px;line-height:1;font-family:Averta;font-variant-ligatures:none;text-align:center;text-anchor:middle" d="m 359.6285,-11.616 c 0.032,-2.944 -2.816,-4.32 -5.344,-4.32 -5.28,0 -8.576,4.352 -8.576,9.664 -0.032,4.064 2.592,6.56 6.528,6.56 3.072,0 5.152,-1.152 6.816,-3.424 l -3.584,-2.112 c -0.864,1.152 -1.792,1.568 -2.848,1.568 -0.928,0 -1.952,-0.576 -2.24,-1.984 4.608,-0.48 9.184,-1.984 9.248,-5.952 z m -4.608,0.672 c -0.032,1.536 -2.144,2.144 -4.48,2.4 0.544,-2.176 1.952,-3.392 3.328,-3.392 0.736,0 1.184,0.352 1.152,0.992 z" stroke-width="0" stroke-linejoin="miter" stroke-miterlimit="2" fill="#79b3ce" stroke="#79b3ce" transform="translate(-1.7053025658242404e-13 348.67400000000004) translate(371.2690325 61.6) scale(0.75) translate(-345.70821 15.936)"/>
        <path id="path364462" style="font-style:oblique;font-weight:700;font-size:32px;line-height:1;font-family:Averta;font-variant-ligatures:none;text-align:center;text-anchor:middle" d="m 366.0785,0.288 c 3.808,0 6.208,-2.016 6.208,-5.088 0,-2.464 -1.664,-3.584 -4.096,-4.8 -1.44,-0.704 -2.208,-1.216 -2.208,-1.728 0,-0.608 0.608,-0.96 1.248,-0.96 0.736,0.032 1.824,0.416 2.688,1.6 l 2.912,-2.752 c -1.408,-1.696 -3.52,-2.496 -5.632,-2.496 -3.232,0 -5.792,2.08 -5.792,5.216 0,2.304 1.44,3.584 3.808,4.768 1.792,0.928 2.432,1.184 2.432,1.76 0,0.544 -0.608,0.864 -1.44,0.864 -1.216,0 -2.624,-0.736 -3.552,-1.856 l -2.688,2.784 c 1.376,1.728 3.872,2.688 6.112,2.688 z" stroke-width="0" stroke-linejoin="miter" stroke-miterlimit="2" fill="#79b3ce" stroke="#79b3ce" transform="translate(-1.7053025658242404e-13 348.67400000000004) translate(383.46274999999997 61.6) scale(0.75) translate(-359.9665 15.936)"/>
        <path id="path364464" style="font-style:oblique;font-weight:700;font-size:32px;line-height:1;font-family:Averta;font-variant-ligatures:none;text-align:center;text-anchor:middle" d="m 384.6275,0.288 c 1.44,0 2.848,-0.352 4.192,-1.088 l -0.768,-3.744 c -0.608,0.32 -1.152,0.512 -1.568,0.512 -0.512,0 -0.832,-0.416 -0.704,-1.312 l 0.768,-6.432 h 3.232 l 0.48,-3.872 h -3.232 l 0.672,-5.536 -4.896,0.96 -0.608,4.576 h -1.536 l -0.48,3.872 h 1.536 l -0.832,7.072 c -0.448,3.616 1.312,4.992 3.744,4.992 z" stroke-width="0" stroke-linejoin="miter" stroke-miterlimit="2" fill="#79b3ce" stroke="#79b3ce" transform="translate(-1.7053025658242404e-13 348.67400000000004) translate(400.12250000000006 57.663999999999994) scale(0.75) translate(-380.1795 21.184)"/>
        <path id="path364466" style="font-style:oblique;font-weight:700;font-size:32px;line-height:1;font-family:Averta;font-variant-ligatures:none;text-align:center;text-anchor:middle" d="m 395.469,0.288 c 1.952,0 3.488,-1.024 4.64,-2.592 h 0.064 L 399.981,0 h 4.704 l 1.92,-15.648 h -4.8 l -0.864,7.168 c -0.288,2.304 -2.176,4.48 -3.52,4.48 -1.12,0 -1.376,-0.832 -1.024,-3.36 l 1.184,-8.288 h -4.768 l -1.344,9.728 c -0.672,4.64 1.088,6.208 4,6.208 z" stroke-width="0" stroke-linejoin="miter" stroke-miterlimit="2" fill="#79b3ce" stroke="#79b3ce" transform="translate(-1.7053025658242404e-13 348.67400000000004) translate(409.9824950000001 61.815999999999995) scale(0.75) translate(-391.32616 15.648)"/>
        <path id="path364468" style="font-style:oblique;font-weight:700;font-size:32px;line-height:1;font-family:Averta;font-variant-ligatures:none;text-align:center;text-anchor:middle" d="M 410.127,-15.648 408.207,0 h 4.8 l 0.704,-6.016 c 0.576,-3.712 2.496,-5.44 4.8,-4.608 l 0.672,-5.312 c -1.728,0 -3.264,0.832 -4.48,2.432 h -0.064 l 0.288,-2.144 z" stroke-width="0" stroke-linejoin="miter" stroke-miterlimit="2" fill="#79b3ce" stroke="#79b3ce" transform="translate(-1.7053025658242404e-13 348.67400000000004) translate(424.14312500000005 61.6) scale(0.75) translate(-408.207 15.936)"/>
        <path id="path364470" style="font-style:oblique;font-weight:700;font-size:32px;line-height:1;font-family:Averta;font-variant-ligatures:none;text-align:center;text-anchor:middle" d="m 426.4955,0.32 c 6.144,0 9.184,-4.064 9.184,-9.76 0,-3.648 -1.76,-6.496 -5.088,-6.496 -1.824,0 -3.36,0.928 -4.544,2.56 l -0.064,-0.032 1.216,-10.144 h -4.8 l -2.752,22.24 c 1.984,1.056 4.096,1.632 6.848,1.632 z m -0.096,-4.288 c -0.48,0 -1.088,-0.064 -1.728,-0.224 l 0.128,-1.024 c 0.544,-4.16 2.432,-6.432 4.224,-6.432 1.088,0 1.792,1.056 1.792,2.464 0,2.784 -1.536,5.216 -4.416,5.216 z" stroke-width="0" stroke-linejoin="miter" stroke-miterlimit="2" fill="#79b3ce" stroke="#79b3ce" transform="translate(-1.7053025658242404e-13 348.67400000000004) translate(434.22350000000006 55.888) scale(0.75) translate(-419.6475 23.552)"/>
        <path id="path364472" style="font-style:oblique;font-weight:700;font-size:32px;line-height:1;font-family:Averta;font-variant-ligatures:none;text-align:center;text-anchor:middle" d="m 444.0825,0.288 c 5.984,0 8.704,-4.448 8.704,-9.536 0,-4.256 -2.656,-6.688 -6.688,-6.688 -5.504,0 -8.64,4.48 -8.64,9.504 0,4.288 2.656,6.72 6.624,6.72 z M 444.4345,-4 c -1.024,0 -2.112,-0.832 -2.112,-2.688 0,-2.4 1.28,-4.96 3.392,-4.96 0.864,0 2.208,0.48 2.208,2.72 0,2.56 -1.376,4.928 -3.488,4.928 z" stroke-width="0" stroke-linejoin="miter" stroke-miterlimit="2" fill="#79b3ce" stroke="#79b3ce" transform="translate(-1.7053025658242404e-13 348.67400000000004) translate(449.0817500000001 61.6) scale(0.75) translate(-437.4585 15.936)"/>
        <path id="path364474" style="font-style:oblique;font-weight:700;font-size:32px;line-height:1;font-family:Averta;font-variant-ligatures:none;text-align:center;text-anchor:middle" d="m 459.7035,0.288 c 3.808,0 6.208,-2.016 6.208,-5.088 0,-2.464 -1.664,-3.584 -4.096,-4.8 -1.44,-0.704 -2.208,-1.216 -2.208,-1.728 0,-0.608 0.608,-0.96 1.248,-0.96 0.736,0.032 1.824,0.416 2.688,1.6 l 2.912,-2.752 c -1.408,-1.696 -3.52,-2.496 -5.632,-2.496 -3.232,0 -5.792,2.08 -5.792,5.216 0,2.304 1.44,3.584 3.808,4.768 1.792,0.928 2.432,1.184 2.432,1.76 0,0.544 -0.608,0.864 -1.44,0.864 -1.216,0 -2.624,-0.736 -3.552,-1.856 l -2.688,2.784 c 1.376,1.728 3.872,2.688 6.112,2.688 z" stroke-width="0" stroke-linejoin="miter" stroke-miterlimit="2" fill="#79b3ce" stroke="#79b3ce" transform="translate(-1.7053025658242404e-13 348.67400000000004) translate(462.6815000000001 61.6) scale(0.75) translate(-453.5915 15.936)"/>
        <path id="path364476" style="font-style:oblique;font-weight:700;font-size:32px;line-height:1;font-family:Averta;font-variant-ligatures:none;text-align:center;text-anchor:middle" d="m 475.5645,-15.648 -2.72,21.984 h 4.8 l 0.864,-7.072 0.128,-0.032 c 0.96,0.736 2.176,1.056 3.648,1.056 4.192,0 7.488,-4.256 7.488,-9.824 0,-3.552 -1.696,-6.4 -4.96,-6.4 -1.984,0 -3.552,1.024 -4.704,2.688 l -0.032,-0.064 0.288,-2.336 z m 5.44,11.68 c -0.832,0 -1.632,-0.32 -2.112,-0.96 l 0.032,-0.416 c 0.576,-4.096 2.528,-6.336 4.288,-6.336 1.088,0 1.76,1.12 1.76,2.624 0,2.592 -1.376,5.088 -3.968,5.088 z" stroke-width="0" stroke-linejoin="miter" stroke-miterlimit="2" fill="#79b3ce" stroke="#79b3ce" transform="translate(-1.7053025658242404e-13 348.67400000000004) translate(478.62125000000015 61.6) scale(0.75) translate(-472.8445 15.936)"/>
        <path id="path364478" style="font-style:oblique;font-weight:700;font-size:32px;line-height:1;font-family:Averta;font-variant-ligatures:none;text-align:center;text-anchor:middle" d="M 493.4395,-15.648 491.5195,0 h 4.8 l 0.704,-6.016 c 0.576,-3.712 2.496,-5.44 4.8,-4.608 l 0.672,-5.312 c -1.728,0 -3.264,0.832 -4.48,2.432 h -0.064 l 0.288,-2.144 z" stroke-width="0" stroke-linejoin="miter" stroke-miterlimit="2" fill="#79b3ce" stroke="#79b3ce" transform="translate(-1.7053025658242404e-13 348.67400000000004) translate(494.12750000000017 61.6) scale(0.75) translate(-491.5195 15.936)"/>
        <path id="path364480" style="font-style:oblique;font-weight:700;font-size:32px;line-height:1;font-family:Averta;font-variant-ligatures:none;text-align:center;text-anchor:middle" d="m 509.145,0.288 c 5.984,0 8.704,-4.448 8.704,-9.536 0,-4.256 -2.656,-6.688 -6.688,-6.688 -5.504,0 -8.64,4.48 -8.64,9.504 0,4.288 2.656,6.72 6.624,6.72 z M 509.497,-4 c -1.024,0 -2.112,-0.832 -2.112,-2.688 0,-2.4 1.28,-4.96 3.392,-4.96 0.864,0 2.208,0.48 2.208,2.72 0,2.56 -1.376,4.928 -3.488,4.928 z" stroke-width="0" stroke-linejoin="miter" stroke-miterlimit="2" fill="#79b3ce" stroke="#79b3ce" transform="translate(-1.7053025658242404e-13 348.67400000000004) translate(503.8786250000002 61.6) scale(0.75) translate(-502.521 15.936)"/>
        <path id="path364482" style="font-style:oblique;font-weight:700;font-size:32px;line-height:1;font-family:Averta;font-variant-ligatures:none;text-align:center;text-anchor:middle" d="m 530.4535,0.288 c 3.808,0 6.208,-2.016 6.208,-5.088 0,-2.464 -1.664,-3.584 -4.096,-4.8 -1.44,-0.704 -2.208,-1.216 -2.208,-1.728 0,-0.608 0.608,-0.96 1.248,-0.96 0.736,0.032 1.824,0.416 2.688,1.6 l 2.912,-2.752 c -1.408,-1.696 -3.52,-2.496 -5.632,-2.496 -3.232,0 -5.792,2.08 -5.792,5.216 0,2.304 1.44,3.584 3.808,4.768 1.792,0.928 2.432,1.184 2.432,1.76 0,0.544 -0.608,0.864 -1.44,0.864 -1.216,0 -2.624,-0.736 -3.552,-1.856 l -2.688,2.784 c 1.376,1.728 3.872,2.688 6.112,2.688 z" stroke-width="0" stroke-linejoin="miter" stroke-miterlimit="2" fill="#79b3ce" stroke="#79b3ce" transform="translate(-1.7053025658242404e-13 348.67400000000004) translate(521.7440000000003 61.6) scale(0.75) translate(-524.3415 15.936)"/>
        <path id="path364484" style="font-style:oblique;font-weight:700;font-size:32px;line-height:1;font-family:Averta;font-variant-ligatures:none;text-align:center;text-anchor:middle" d="m 552.566,-11.616 c 0.032,-2.944 -2.816,-4.32 -5.344,-4.32 -5.28,0 -8.576,4.352 -8.576,9.664 -0.032,4.064 2.592,6.56 6.528,6.56 3.072,0 5.152,-1.152 6.816,-3.424 l -3.584,-2.112 c -0.864,1.152 -1.792,1.568 -2.848,1.568 -0.928,0 -1.952,-0.576 -2.24,-1.984 4.608,-0.48 9.184,-1.984 9.248,-5.952 z m -4.608,0.672 c -0.032,1.536 -2.144,2.144 -4.48,2.4 0.544,-2.176 1.952,-3.392 3.328,-3.392 0.736,0 1.184,0.352 1.152,0.992 z" stroke-width="0" stroke-linejoin="miter" stroke-miterlimit="2" fill="#79b3ce" stroke="#79b3ce" transform="translate(-1.7053025658242404e-13 348.67400000000004) translate(533.9721575000003 61.6) scale(0.75) translate(-538.64571 15.936)"/>
        <path id="path364486" style="font-style:oblique;font-weight:700;font-size:32px;line-height:1;font-family:Averta;font-variant-ligatures:none;text-align:center;text-anchor:middle" d="m 558.344,0.288 c 1.952,0 3.488,-1.024 4.64,-2.592 h 0.064 L 562.856,0 h 4.704 l 1.92,-15.648 h -4.8 l -0.864,7.168 c -0.288,2.304 -2.176,4.48 -3.52,4.48 -1.12,0 -1.376,-0.832 -1.024,-3.36 l 1.184,-8.288 h -4.768 l -1.344,9.728 c -0.672,4.64 1.088,6.208 4,6.208 z" stroke-width="0" stroke-linejoin="miter" stroke-miterlimit="2" fill="#79b3ce" stroke="#79b3ce" transform="translate(-1.7053025658242404e-13 348.67400000000004) translate(547.1387450000003 61.815999999999995) scale(0.75) translate(-554.20116 15.648)"/>
        <path id="path364488" style="font-style:oblique;font-weight:700;font-size:32px;line-height:1;font-family:Averta;font-variant-ligatures:none;text-align:center;text-anchor:middle" d="m 583.4575,0.288 c 3.008,0 5.152,-1.184 6.784,-3.424 l -3.712,-2.368 c -0.928,1.12 -1.824,1.504 -2.72,1.504 -1.312,0 -2.144,-1.024 -2.144,-2.72 0,-2.624 1.472,-4.96 3.616,-4.96 0.896,0 1.696,0.384 2.208,1.376 l 3.68,-2.752 c -1.28,-1.856 -3.232,-2.88 -6.016,-2.88 -5.408,0 -8.32,4.608 -8.32,9.408 0,4.448 2.56,6.816 6.624,6.816 z" stroke-width="0" stroke-linejoin="miter" stroke-miterlimit="2" fill="#79b3ce" stroke="#79b3ce" transform="translate(-1.7053025658242404e-13 348.67400000000004) translate(565.6130000000003 61.6) scale(0.75) translate(-576.8335 15.936)"/>
        <path id="path364490" style="font-style:oblique;font-weight:700;font-size:32px;line-height:1;font-family:Averta;font-variant-ligatures:none;text-align:center;text-anchor:middle" d="m 597.2645,0.288 c 1.76,0 3.328,-0.96 4.48,-2.624 l 0.096,0.032 -0.288,2.304 h 4.832 l 1.92,-15.648 h -4.832 l -0.128,1.088 h -0.096 c -0.832,-0.864 -2.048,-1.376 -3.68,-1.376 -4.096,0 -7.392,4.256 -7.392,9.824 0,3.616 1.728,6.4 5.088,6.4 z m 1.536,-4.256 c -1.088,0 -1.792,-0.992 -1.792,-2.496 0,-2.336 1.28,-5.184 3.392,-5.184 0.992,0 1.888,0.384 2.592,1.12 l -0.064,0.448 c -0.544,3.936 -2.464,6.112 -4.128,6.112 z" stroke-width="0" stroke-linejoin="miter" stroke-miterlimit="2" fill="#79b3ce" stroke="#79b3ce" transform="translate(-1.7053025658242404e-13 348.67400000000004) translate(578.6202500000003 61.6) scale(0.75) translate(-592.1765 15.936)"/>
        <path id="path364492" style="font-style:oblique;font-weight:700;font-size:32px;line-height:1;font-family:Averta;font-variant-ligatures:none;text-align:center;text-anchor:middle" d="M 611.752,-15.648 609.832,0 h 4.8 l 0.704,-6.016 c 0.576,-3.712 2.496,-5.44 4.8,-4.608 l 0.672,-5.312 c -1.728,0 -3.264,0.832 -4.48,2.432 h -0.064 l 0.288,-2.144 z" stroke-width="0" stroke-linejoin="miter" stroke-miterlimit="2" fill="#79b3ce" stroke="#79b3ce" transform="translate(-1.7053025658242404e-13 348.67400000000004) translate(593.3618750000003 61.6) scale(0.75) translate(-609.832 15.936)"/>
        <path id="path364494" style="font-style:oblique;font-weight:700;font-size:32px;line-height:1;font-family:Averta;font-variant-ligatures:none;text-align:center;text-anchor:middle" d="M 623.0645,-15.648 621.1445,0 h 4.8 l 0.704,-6.016 c 0.576,-3.712 2.496,-5.44 4.8,-4.608 l 0.672,-5.312 c -1.728,0 -3.264,0.832 -4.48,2.432 h -0.064 l 0.288,-2.144 z" stroke-width="0" stroke-linejoin="miter" stroke-miterlimit="2" fill="#79b3ce" stroke="#79b3ce" transform="translate(-1.7053025658242404e-13 348.67400000000004) translate(603.3462500000003 61.6) scale(0.75) translate(-621.1445 15.936)"/>
        <path id="path364496" style="font-style:oblique;font-weight:700;font-size:32px;line-height:1;font-family:Averta;font-variant-ligatures:none;text-align:center;text-anchor:middle" d="m 638.77,0.288 c 5.984,0 8.704,-4.448 8.704,-9.536 0,-4.256 -2.656,-6.688 -6.688,-6.688 -5.504,0 -8.64,4.48 -8.64,9.504 0,4.288 2.656,6.72 6.624,6.72 z M 639.122,-4 c -1.024,0 -2.112,-0.832 -2.112,-2.688 0,-2.4 1.28,-4.96 3.392,-4.96 0.864,0 2.208,0.48 2.208,2.72 0,2.56 -1.376,4.928 -3.488,4.928 z" stroke-width="0" stroke-linejoin="miter" stroke-miterlimit="2" fill="#79b3ce" stroke="#79b3ce" transform="translate(-1.7053025658242404e-13 348.67400000000004) translate(613.0973750000003 61.6) scale(0.75) translate(-632.146 15.936)"/>
        <path id="path364498" style="font-style:oblique;font-weight:700;font-size:32px;line-height:1;font-family:Averta;font-variant-ligatures:none;text-align:center;text-anchor:middle" d="m 659.5025,0.288 c 1.44,0 2.848,-0.352 4.192,-1.088 l -0.768,-3.744 c -0.608,0.32 -1.152,0.512 -1.568,0.512 -0.512,0 -0.832,-0.416 -0.704,-1.312 l 0.768,-6.432 h 3.232 l 0.48,-3.872 h -3.232 l 0.672,-5.536 -4.896,0.96 -0.608,4.576 h -1.536 l -0.48,3.872 h 1.536 l -0.832,7.072 c -0.448,3.616 1.312,4.992 3.744,4.992 z" stroke-width="0" stroke-linejoin="miter" stroke-miterlimit="2" fill="#79b3ce" stroke="#79b3ce" transform="translate(-1.7053025658242404e-13 348.67400000000004) translate(631.7787500000003 57.663999999999994) scale(0.75) translate(-655.0545 21.184)"/>
        <path id="path364500" style="font-style:oblique;font-weight:700;font-size:32px;line-height:1;font-family:Averta;font-variant-ligatures:none;text-align:center;text-anchor:middle" d="m 670.344,0.288 c 1.952,0 3.488,-1.024 4.64,-2.592 h 0.064 L 674.856,0 h 4.704 l 1.92,-15.648 h -4.8 l -0.864,7.168 c -0.288,2.304 -2.176,4.48 -3.52,4.48 -1.12,0 -1.376,-0.832 -1.024,-3.36 l 1.184,-8.288 h -4.768 l -1.344,9.728 c -0.672,4.64 1.088,6.208 4,6.208 z" stroke-width="0" stroke-linejoin="miter" stroke-miterlimit="2" fill="#79b3ce" stroke="#79b3ce" transform="translate(-1.7053025658242404e-13 348.67400000000004) translate(641.6387450000002 61.815999999999995) scale(0.75) translate(-666.20116 15.648)"/>
        <path id="path364502" style="font-style:oblique;font-weight:700;font-size:32px;line-height:1;font-family:Averta;font-variant-ligatures:none;text-align:center;text-anchor:middle" d="M 685.002,-15.648 683.082,0 h 4.8 l 0.704,-6.016 c 0.576,-3.712 2.496,-5.44 4.8,-4.608 l 0.672,-5.312 c -1.728,0 -3.264,0.832 -4.48,2.432 h -0.064 l 0.288,-2.144 z" stroke-width="0" stroke-linejoin="miter" stroke-miterlimit="2" fill="#79b3ce" stroke="#79b3ce" transform="translate(-1.7053025658242404e-13 348.67400000000004) translate(655.7993750000003 61.6) scale(0.75) translate(-683.082 15.936)"/>
        <path id="path364504" style="font-style:oblique;font-weight:700;font-size:32px;line-height:1;font-family:Averta;font-variant-ligatures:none;text-align:center;text-anchor:middle" d="m 701.3705,0.32 c 6.144,0 9.184,-4.064 9.184,-9.76 0,-3.648 -1.76,-6.496 -5.088,-6.496 -1.824,0 -3.36,0.928 -4.544,2.56 l -0.064,-0.032 1.216,-10.144 h -4.8 l -2.752,22.24 c 1.984,1.056 4.096,1.632 6.848,1.632 z m -0.096,-4.288 c -0.48,0 -1.088,-0.064 -1.728,-0.224 l 0.128,-1.024 c 0.544,-4.16 2.432,-6.432 4.224,-6.432 1.088,0 1.792,1.056 1.792,2.464 0,2.784 -1.536,5.216 -4.416,5.216 z" stroke-width="0" stroke-linejoin="miter" stroke-miterlimit="2" fill="#79b3ce" stroke="#79b3ce" transform="translate(-1.7053025658242404e-13 348.67400000000004) translate(665.8797500000003 55.888) scale(0.75) translate(-694.5225 23.552)"/>
        <path id="path364506" style="font-style:oblique;font-weight:700;font-size:32px;line-height:1;font-family:Averta;font-variant-ligatures:none;text-align:center;text-anchor:middle" d="m 717.3895,0.288 c 1.76,0 3.328,-0.96 4.48,-2.624 l 0.096,0.032 -0.288,2.304 h 4.832 l 1.92,-15.648 h -4.832 l -0.128,1.088 h -0.096 c -0.832,-0.864 -2.048,-1.376 -3.68,-1.376 -4.096,0 -7.392,4.256 -7.392,9.824 0,3.616 1.728,6.4 5.088,6.4 z m 1.536,-4.256 c -1.088,0 -1.792,-0.992 -1.792,-2.496 0,-2.336 1.28,-5.184 3.392,-5.184 0.992,0 1.888,0.384 2.592,1.12 l -0.064,0.448 c -0.544,3.936 -2.464,6.112 -4.128,6.112 z" stroke-width="0" stroke-linejoin="miter" stroke-miterlimit="2" fill="#79b3ce" stroke="#79b3ce" transform="translate(-1.7053025658242404e-13 348.67400000000004) translate(680.7140000000003 61.6) scale(0.75) translate(-712.3015 15.936)"/>
        <path id="path364508" style="font-style:oblique;font-weight:700;font-size:32px;line-height:1;font-family:Averta;font-variant-ligatures:none;text-align:center;text-anchor:middle" d="m 735.141,0.288 c 3.808,0 6.208,-2.016 6.208,-5.088 0,-2.464 -1.664,-3.584 -4.096,-4.8 -1.44,-0.704 -2.208,-1.216 -2.208,-1.728 0,-0.608 0.608,-0.96 1.248,-0.96 0.736,0.032 1.824,0.416 2.688,1.6 l 2.912,-2.752 c -1.408,-1.696 -3.52,-2.496 -5.632,-2.496 -3.232,0 -5.792,2.08 -5.792,5.216 0,2.304 1.44,3.584 3.808,4.768 1.792,0.928 2.432,1.184 2.432,1.76 0,0.544 -0.608,0.864 -1.44,0.864 -1.216,0 -2.624,-0.736 -3.552,-1.856 l -2.688,2.784 c 1.376,1.728 3.872,2.688 6.112,2.688 z" stroke-width="0" stroke-linejoin="miter" stroke-miterlimit="2" fill="#79b3ce" stroke="#79b3ce" transform="translate(-1.7053025658242404e-13 348.67400000000004) translate(694.7596250000003 61.6) scale(0.75) translate(-729.029 15.936)"/>
        <path id="path364510" style="font-style:oblique;font-weight:700;font-size:32px;line-height:1;font-family:Averta;font-variant-ligatures:none;text-align:center;text-anchor:middle" d="m 748.5785,0.288 c 3.808,0 6.208,-2.016 6.208,-5.088 0,-2.464 -1.664,-3.584 -4.096,-4.8 -1.44,-0.704 -2.208,-1.216 -2.208,-1.728 0,-0.608 0.608,-0.96 1.248,-0.96 0.736,0.032 1.824,0.416 2.688,1.6 l 2.912,-2.752 c -1.408,-1.696 -3.52,-2.496 -5.632,-2.496 -3.232,0 -5.792,2.08 -5.792,5.216 0,2.304 1.44,3.584 3.808,4.768 1.792,0.928 2.432,1.184 2.432,1.76 0,0.544 -0.608,0.864 -1.44,0.864 -1.216,0 -2.624,-0.736 -3.552,-1.856 l -2.688,2.784 c 1.376,1.728 3.872,2.688 6.112,2.688 z" stroke-width="0" stroke-linejoin="miter" stroke-miterlimit="2" fill="#79b3ce" stroke="#79b3ce" transform="translate(-1.7053025658242404e-13 348.67400000000004) translate(706.3377500000003 61.6) scale(0.75) translate(-742.4665 15.936)"/>
        <path id="path364512" style="font-style:oblique;font-weight:700;font-size:32px;line-height:1;font-family:Averta;font-variant-ligatures:none;text-align:center;text-anchor:middle" d="m 761.702,0.288 c 1.76,0 3.328,-0.96 4.48,-2.624 l 0.096,0.032 L 765.99,0 h 4.832 l 1.92,-15.648 h -4.832 l -0.128,1.088 h -0.096 c -0.832,-0.864 -2.048,-1.376 -3.68,-1.376 -4.096,0 -7.392,4.256 -7.392,9.824 0,3.616 1.728,6.4 5.088,6.4 z m 1.536,-4.256 c -1.088,0 -1.792,-0.992 -1.792,-2.496 0,-2.336 1.28,-5.184 3.392,-5.184 0.992,0 1.888,0.384 2.592,1.12 l -0.064,0.448 c -0.544,3.936 -2.464,6.112 -4.128,6.112 z" stroke-width="0" stroke-linejoin="miter" stroke-miterlimit="2" fill="#79b3ce" stroke="#79b3ce" transform="translate(-1.7053025658242404e-13 348.67400000000004) translate(718.4483750000003 61.6) scale(0.75) translate(-756.614 15.936)"/>
        <path id="path364514" style="font-style:oblique;font-weight:700;font-size:32px;line-height:1;font-family:Averta;font-variant-ligatures:none;text-align:center;text-anchor:middle" d="m 779.4535,0.288 c 3.808,0 6.208,-2.016 6.208,-5.088 0,-2.464 -1.664,-3.584 -4.096,-4.8 -1.44,-0.704 -2.208,-1.216 -2.208,-1.728 0,-0.608 0.608,-0.96 1.248,-0.96 0.736,0.032 1.824,0.416 2.688,1.6 l 2.912,-2.752 c -1.408,-1.696 -3.52,-2.496 -5.632,-2.496 -3.232,0 -5.792,2.08 -5.792,5.216 0,2.304 1.44,3.584 3.808,4.768 1.792,0.928 2.432,1.184 2.432,1.76 0,0.544 -0.608,0.864 -1.44,0.864 -1.216,0 -2.624,-0.736 -3.552,-1.856 l -2.688,2.784 c 1.376,1.728 3.872,2.688 6.112,2.688 z" stroke-width="0" stroke-linejoin="miter" stroke-miterlimit="2" fill="#79b3ce" stroke="#79b3ce" transform="translate(-1.7053025658242404e-13 348.67400000000004) translate(732.4940000000003 61.6) scale(0.75) translate(-773.3415 15.936)"/>
        <path id="path364516" style="font-style:oblique;font-weight:700;font-size:32px;line-height:1;font-family:Averta;font-variant-ligatures:none;text-align:center;text-anchor:middle" d="m 792.891,0.288 c 3.808,0 6.208,-2.016 6.208,-5.088 0,-2.464 -1.664,-3.584 -4.096,-4.8 -1.44,-0.704 -2.208,-1.216 -2.208,-1.728 0,-0.608 0.608,-0.96 1.248,-0.96 0.736,0.032 1.824,0.416 2.688,1.6 l 2.912,-2.752 c -1.408,-1.696 -3.52,-2.496 -5.632,-2.496 -3.232,0 -5.792,2.08 -5.792,5.216 0,2.304 1.44,3.584 3.808,4.768 1.792,0.928 2.432,1.184 2.432,1.76 0,0.544 -0.608,0.864 -1.44,0.864 -1.216,0 -2.624,-0.736 -3.552,-1.856 l -2.688,2.784 c 1.376,1.728 3.872,2.688 6.112,2.688 z" stroke-width="0" stroke-linejoin="miter" stroke-miterlimit="2" fill="#79b3ce" stroke="#79b3ce" transform="translate(-1.7053025658242404e-13 348.67400000000004) translate(744.0721250000003 61.6) scale(0.75) translate(-786.779 15.936)"/>
        <path id="path364518" style="font-style:oblique;font-weight:700;font-size:32px;line-height:1;font-family:Averta;font-variant-ligatures:none;text-align:center;text-anchor:middle" d="m 807.7075,0.288 c 5.984,0 8.704,-4.448 8.704,-9.536 0,-4.256 -2.656,-6.688 -6.688,-6.688 -5.504,0 -8.64,4.48 -8.64,9.504 0,4.288 2.656,6.72 6.624,6.72 z M 808.0595,-4 c -1.024,0 -2.112,-0.832 -2.112,-2.688 0,-2.4 1.28,-4.96 3.392,-4.96 0.864,0 2.208,0.48 2.208,2.72 0,2.56 -1.376,4.928 -3.488,4.928 z" stroke-width="0" stroke-linejoin="miter" stroke-miterlimit="2" fill="#79b3ce" stroke="#79b3ce" transform="translate(-1.7053025658242404e-13 348.67400000000004) translate(756.3005000000003 61.6) scale(0.75) translate(-801.0835 15.936)"/>
      </g>
      <g id="title" style="font-style:normal;font-weight:normal;font-size:72px;line-height:1;font-family:'Brandmark Sans 41';font-variant-ligatures:normal;text-align:center;text-anchor:middle" transform="translate(0 0)">
        <path id="path364521" style="font-style:normal;font-weight:normal;font-size:72px;line-height:1;font-family:'Brandmark Sans 41';font-variant-ligatures:normal;text-align:center;text-anchor:middle" d="m 109.74275,-50.4 h -61.92 l -2.592,14.4 h 22.392 l -6.408,36 h 17.28 l 6.408,-36 h 22.248 z" stroke-width="0" stroke-linejoin="miter" stroke-miterlimit="2" fill="#79b3ce" stroke="#79b3ce" transform="translate(0 276.62199999999996) translate(160.87027475000002 69.80000000000001) scale(0.75) translate(-45.23075 50.4)"/>
        <path id="path364523" style="font-style:normal;font-weight:normal;font-size:72px;line-height:1;font-family:'Brandmark Sans 41';font-variant-ligatures:normal;text-align:center;text-anchor:middle" d="m 151.25862,-23.616 c -1.00799,5.544 -5.616,9.216 -15.336,9.216 -10.00799,0 -13.03199,-3.672 -12.02399,-9.216 l 4.75199,-26.784 h -17.27999 l -4.75201,26.784 c -2.80799,15.84 3.816,24.336 26.64,24.336 22.104,0 32.472,-8.496 35.28,-24.336 l 2.232,-12.384 h 39.60001 c 1.15199,0 2.01599,1.008 1.79999,2.16 -0.21599,1.152 -1.368,2.16 -2.52,2.16 h -36 L 168.03462,0 h 17.28 l 3.024,-17.208 h 9.504 L 205.47462,0 h 18 l -8.064,-18.144 c 6.98401,-1.44 12.24,-5.4 14.04,-15.696 2.664,-15.12 -7.19999,-16.56 -19.8,-16.56 h -53.64 z" stroke-width="0" stroke-linejoin="miter" stroke-miterlimit="2" fill="#6eb7cc" stroke="#6eb7cc" transform="translate(0 276.62199999999996) translate(206.45647475000004 69.80000000000001) scale(0.75) translate(-106.01235 50.4)"/>
        <path id="path364525" style="font-style:normal;font-weight:normal;font-size:72px;line-height:1;font-family:'Brandmark Sans 41';font-variant-ligatures:normal;text-align:center;text-anchor:middle" d="m 225.76737,0 h 39.528 c 9,0 17.136,-6.912 18.576,-15.192 0.936,-5.256 -1.00799,-10.008 -4.752,-12.744 2.736,-2.448 4.68,-5.688 5.32801,-9.216 1.296,-7.2 -3.60001,-13.248 -11.59201,-13.248 h -38.15999 l -2.59201,14.4 z m 19.8,-14.4 0.936,-5.04 h 18.21601 c 1.584,0 2.44799,1.008 2.23199,2.448 -0.288,1.656 -1.512,2.592 -3.096,2.592 z m 2.952,-16.56 0.864,-5.04 h 15.048 c 1.584,0 2.52,1.008 2.232,2.448 -0.28799,1.656 -1.51199,2.592 -3.096,2.592 z M 277.82337,0 h 8.64 l 22.392,-33.12 10.728,33.12 h 18 l -16.272,-50.4 h -20.88 l -14.976,22.104 c 2.448,3.96 3.60001,8.712 2.592,14.112 -1.008,5.544 -4.82399,11.088 -10.224,14.184 z" stroke-width="0" stroke-linejoin="miter" stroke-miterlimit="2" fill="#63bbcb" stroke="#63bbcb" transform="translate(0 276.62199999999996) translate(296.27273975 69.80000000000001) scale(0.75) translate(-225.76737 50.4)"/>
        <path id="path364527" style="font-style:normal;font-weight:normal;font-size:72px;line-height:1;font-family:'Brandmark Sans 41';font-variant-ligatures:normal;text-align:center;text-anchor:middle" d="m 343.45137,-36 -0.216,1.152 c -1.79999,10.44 4.824,13.968 13.968,14.688 l 18.864,1.44 c 1.58401,0.144 2.448,0.648 2.16,2.088 -0.288,1.656 -1.296,2.232 -2.88,2.232 h -15.83999 c -1.584,0 -2.44801,-0.576 -2.16001,-2.232 h -17.27999 l -0.144,0.72 c -1.728,8.64 4.392,15.912 13.68,15.912 h 22.46399 c 9.288,0 17.71201,-6.48 18.936,-13.752 l 0.28801,-1.728 c 1.584,-9.72 -4.82401,-13.968 -13.96801,-14.688 l -18.79199,-1.512 c -1.584,-0.144 -2.44801,-0.576 -2.16001,-2.232 0.288,-1.44 1.296,-2.088 2.88,-2.088 h 15.84 c 1.58401,0 2.448,0.576 2.16,2.232 h 17.28001 l 0.144,-0.72 c 1.72799,-8.64 -4.39201,-15.912 -13.68001,-15.912 h -22.46399 c -9.36001,0 -17.78401,7.272 -19.08001,14.4 z" stroke-width="0" stroke-linejoin="miter" stroke-miterlimit="2" fill="#58bec9" stroke="#58bec9" transform="translate(0 276.62199999999996) translate(381.67079974999996 69.80000000000001) scale(0.75) translate(-339.63145 50.4)"/>
        <path id="path364529" style="font-style:normal;font-weight:normal;font-size:72px;line-height:1;font-family:'Brandmark Sans 41';font-variant-ligatures:normal;text-align:center;text-anchor:middle" d="m 400.26387,-36 -0.216,1.152 c -1.79999,10.44 4.824,13.968 13.968,14.688 l 18.864,1.44 c 1.58401,0.144 2.448,0.648 2.16,2.088 -0.288,1.656 -1.296,2.232 -2.88,2.232 h -15.83999 c -1.584,0 -2.44801,-0.576 -2.16001,-2.232 h -17.27999 l -0.144,0.72 c -1.728,8.64 4.392,15.912 13.68,15.912 h 22.46399 c 9.288,0 17.71201,-6.48 18.936,-13.752 l 0.28801,-1.728 c 1.584,-9.72 -4.82401,-13.968 -13.96801,-14.688 l -18.79199,-1.512 c -1.584,-0.144 -2.44801,-0.576 -2.16001,-2.232 0.288,-1.44 1.296,-2.088 2.88,-2.088 h 15.84 c 1.58401,0 2.448,0.576 2.16,2.232 h 17.28001 l 0.144,-0.72 c 1.72799,-8.64 -4.39201,-15.912 -13.68001,-15.912 h -22.46399 c -9.36001,0 -17.78401,7.272 -19.08001,14.4 z" stroke-width="0" stroke-linejoin="miter" stroke-miterlimit="2" fill="#4dc2c8" stroke="#4dc2c8" transform="translate(0 276.62199999999996) translate(424.28017474999996 69.80000000000001) scale(0.75) translate(-396.44395 50.4)"/>
        <path id="path364531" style="font-style:normal;font-weight:normal;font-size:72px;line-height:1;font-family:'Brandmark Sans 41';font-variant-ligatures:normal;text-align:center;text-anchor:middle" d="m 476.08438,0 h 13.10399 c 15.12,0 27.936,-10.8 30.456,-25.2 2.52001,-14.4 -6.264,-25.2 -21.384,-25.2 h -13.10399 c -15.12,0 -27.93601,10.8 -30.45601,25.2 -2.51999,14.4 6.26401,25.2 21.38401,25.2 z m -4.10401,-25.344 c 1.08001,-5.76 6.768,-10.656 12.88801,-10.656 h 8.35199 c 6.12,0 10.15201,4.896 9.144,10.656 -1.08,6.12 -6.76799,10.872 -12.88799,10.944 l -8.42401,0.072 c -6.12,0.072 -10.152,-4.896 -9.072,-11.016 z" stroke-width="0" stroke-linejoin="miter" stroke-miterlimit="2" fill="#42c6c6" stroke="#42c6c6" transform="translate(0 276.62199999999996) translate(467.65112975 69.80000000000001) scale(0.75) translate(-454.27189 50.4)"/>
        <path id="path364533" style="font-style:normal;font-weight:normal;font-size:72px;line-height:1;font-family:'Brandmark Sans 41';font-variant-ligatures:normal;text-align:center;text-anchor:middle" d="m 539.75937,-57.6 h -17.28 l -2.51999,14.4 h 7.19999 l -4.824,10.8 h 7.92 l 6.984,-10.8 z" stroke-width="0" stroke-linejoin="miter" stroke-miterlimit="2" fill="#37cac5" stroke="#37cac5" transform="translate(0 276.62199999999996) translate(516.91674725 64.4) scale(0.75) translate(-519.95938 57.6)"/>
        <path id="path364535" style="font-style:normal;font-weight:normal;font-size:72px;line-height:1;font-family:'Brandmark Sans 41';font-variant-ligatures:normal;text-align:center;text-anchor:middle" d="m 545.95137,-36 -0.216,1.152 c -1.79999,10.44 4.82401,13.968 13.96801,14.688 l 18.86399,1.44 c 1.58401,0.144 2.448,0.648 2.16001,2.088 -0.288,1.656 -1.29601,2.232 -2.88,2.232 h -15.84 c -1.58401,0 -2.448,-0.576 -2.16,-2.232 h -17.28001 l -0.144,0.72 C 540.69538,-7.272 546.81538,0 556.10338,0 h 22.46399 c 9.288,0 17.712,-6.48 18.936,-13.752 l 0.28801,-1.728 c 1.58399,-9.72 -4.82401,-13.968 -13.968,-14.688 l -18.792,-1.512 c -1.58401,-0.144 -2.448,-0.576 -2.16001,-2.232 0.288,-1.44 1.296,-2.088 2.88001,-2.088 h 15.83999 c 1.58401,0 2.44801,0.576 2.16001,2.232 h 17.28 l 0.144,-0.72 c 1.72799,-8.64 -4.39201,-15.912 -13.68001,-15.912 h -22.46399 c -9.36001,0 -17.784,7.272 -19.08001,14.4 z" stroke-width="0" stroke-linejoin="miter" stroke-miterlimit="2" fill="#2ccec3" stroke="#2ccec3" transform="translate(0 276.62199999999996) translate(533.54579225 69.80000000000001) scale(0.75) translate(-542.13144 50.4)"/>
        <path id="path364537" style="font-style:normal;font-weight:normal;font-size:72px;line-height:1;font-family:'Brandmark Sans 41';font-variant-ligatures:normal;text-align:center;text-anchor:middle" d="m 681.524,-50.4 h -61.92 l -2.592,14.4 h 22.392 l -6.408,36 h 17.28 l 6.408,-36 h 22.248 z" stroke-width="0" stroke-linejoin="miter" stroke-miterlimit="2" fill="#21d2c2" stroke="#21d2c2" transform="translate(0 276.62199999999996) translate(589.7062122499999 69.80000000000001) scale(0.75) translate(-617.012 50.4)"/>
        <path id="path364539" style="font-style:normal;font-weight:normal;font-size:72px;line-height:1;font-family:'Brandmark Sans 41';font-variant-ligatures:normal;text-align:center;text-anchor:middle" d="m 723.03988,-23.616 c -1.008,5.544 -5.61601,9.216 -15.336,9.216 -10.00801,0 -13.03201,-3.672 -12.024,-9.216 l 4.75199,-26.784 h -17.27999 l -4.75201,26.784 c -2.808,15.84 3.816,24.336 26.64001,24.336 22.10399,0 32.472,-8.496 35.28,-24.336 L 742.55187,-36 h 39.60001 c 1.152,0 2.01599,1.008 1.79999,2.16 -0.216,1.152 -1.36799,2.16 -2.52,2.16 h -36 L 739.81587,0 h 17.28 l 3.024,-17.208 h 9.504 L 777.25588,0 h 18 l -8.06401,-18.144 c 6.98401,-1.44 12.24,-5.4 14.04,-15.696 2.66401,-15.12 -7.19999,-16.56 -19.8,-16.56 h -53.64 z" stroke-width="0" stroke-linejoin="miter" stroke-miterlimit="2" fill="#16d5c0" stroke="#16d5c0" transform="translate(0 276.62199999999996) translate(635.29241225 69.80000000000001) scale(0.75) translate(-677.7936 50.4)"/>
        <path id="path364541" style="font-style:normal;font-weight:normal;font-size:72px;line-height:1;font-family:'Brandmark Sans 41';font-variant-ligatures:normal;text-align:center;text-anchor:middle" d="m 855.72463,-18.72 c -0.216,-3.816 -1.94401,-7.128 -4.82401,-9.216 2.736,-2.448 4.68001,-5.688 5.328,-9.216 1.29601,-7.2 -3.59999,-13.248 -11.592,-13.248 h -38.15999 l -2.592,14.4 -6.336,36 h 95.32799 c 15.12,0 27.93601,-10.8 30.456,-25.2 2.52,-14.4 -6.264,-25.2 -21.384,-25.2 h -13.104 c -15.11999,0 -27.93599,10.8 -30.45599,25.2 -0.432,2.232 -0.504,4.392 -0.36,6.48 h 18.648 c -1.08,-1.872 -1.44001,-4.176 -1.008,-6.624 1.07999,-5.76 6.768,-10.656 12.88799,-10.656 h 8.35201 c 6.12,0 10.15199,4.896 9.144,10.656 -1.08001,6.12 -6.76801,10.944 -12.88801,10.944 l -37.65599,0.072 V -14.4 h -38.16001 l 0.792,-4.32 z m -35.42401,-12.24 0.864,-5.04 h 15.048 c 1.584,0 2.52,1.008 2.232,2.448 -0.288,1.656 -1.51199,2.592 -3.096,2.592 z" stroke-width="0" stroke-linejoin="miter" stroke-miterlimit="2" fill="#0bd9bf" stroke="#0bd9bf" transform="translate(0 276.62199999999996) translate(725.10868475 69.80000000000001) scale(0.75) translate(-797.54863 50.4)"/>
        <path id="path364543" style="font-style:normal;font-weight:normal;font-size:72px;line-height:1;font-family:'Brandmark Sans 41';font-variant-ligatures:normal;text-align:center;text-anchor:middle" d="m 926.06075,-36 -0.216,1.152 c -1.8,10.44 4.824,13.968 13.968,14.688 l 18.864,1.44 c 1.584,0.144 2.448,0.648 2.16,2.088 -0.288,1.656 -1.296,2.232 -2.88,2.232 h -15.84 c -1.584,0 -2.448,-0.576 -2.16,-2.232 h -17.28 l -0.144,0.72 c -1.728,8.64 4.392,15.912 13.68,15.912 h 22.464 c 9.288,0 17.712,-6.48 18.936,-13.752 l 0.288,-1.728 c 1.584,-9.72 -4.824,-13.968 -13.968,-14.688 l -18.792,-1.512 c -1.584,-0.144 -2.448,-0.576 -2.16,-2.232 0.288,-1.44 1.296,-2.088 2.88,-2.088 h 15.84 c 1.584,0 2.448,0.576 2.16,2.232 h 17.28 l 0.144,-0.72 c 1.728,-8.64 -4.392,-15.912 -13.68,-15.912 h -22.464 c -9.36,0 -17.784,7.272 -19.08,14.4 z" stroke-width="0" stroke-linejoin="miter" stroke-miterlimit="2" fill="#00ddbd" stroke="#00ddbd" transform="translate(0 276.62199999999996) translate(818.6278272499999 69.80000000000001) scale(0.75) translate(-922.24082 50.4)"/>
      </g>
      <image id="icon" style="display: none;" x="0" y="0" xlink:href=""/>
    </g>
  </g></g></svg>